<mxfile host="app.diagrams.net" modified="2024-07-03T06:45:53.070Z" agent="Mozilla/5.0 (Windows NT 10.0; Win64; x64) AppleWebKit/537.36 (KHTML, like Gecko) Chrome/126.0.0.0 Safari/537.36" version="24.6.4" etag="Z3EfyD19g2VmUgDqR8Br" type="github">
  <diagram name="ページ1" id="Q1OpBEHC4brXlu5vCzk1">
    <mxGraphModel>
      <root>
        <mxCell id="0" />
        <mxCell id="1" parent="0" />
      </root>
    </mxGraphModel>
  </diagram>
</mxfile>
